<?xml version="1.0" standalone="no"?>
<!DOCTYPE svg PUBLIC "-//W3C//DTD SVG 20010904//EN"
 "http://www.w3.org/TR/2001/REC-SVG-20010904/DTD/svg10.dtd">
<svg version="1.0" xmlns="http://www.w3.org/2000/svg"
 width="64.000000pt" height="64.000000pt" viewBox="0 0 64.000000 64.000000"
 preserveAspectRatio="xMidYMid meet">

<g transform="translate(0.000000,64.000000) scale(0.100000,-0.100000)"
fill="#000000" stroke="none">
<path d="M70 491 c-6 -16 -25 -35 -41 -41 -34 -15 -40 -53 -10 -69 17 -10 19
-19 14 -111 l-6 -100 27 0 c21 0 26 -5 26 -24 0 -21 -5 -25 -37 -28 l-38 -3
-1 -57 -2 -57 125 1 c73 0 119 4 111 9 -9 6 -9 9 -1 9 6 0 14 -4 17 -8 3 -5
33 -9 68 -10 41 0 57 2 47 9 -9 5 -9 9 -2 9 6 0 14 -4 17 -8 3 -5 61 -10 129
-10 l124 -1 1 39 c1 21 -3 42 -9 45 -7 5 -6 11 2 21 9 12 5 14 -30 14 -37 0
-41 2 -41 25 0 20 5 25 25 25 l25 0 0 103 c0 84 -4 108 -20 135 -11 18 -26 35
-34 38 -8 3 -12 14 -9 27 4 16 2 18 -5 8 -6 -8 -15 -10 -23 -6 -9 6 -11 4 -6
-7 4 -12 -4 -17 -41 -21 -34 -4 -53 -12 -69 -32 -24 -27 -30 -60 -13 -70 18
-11 10 -20 -34 -38 -37 -15 -51 -16 -85 -7 -44 12 -47 16 -30 53 8 18 8 30 0
46 -14 26 -67 54 -91 48 -13 -3 -17 0 -13 10 5 13 -32 63 -48 63 -3 0 -12 -13
-19 -29z m53 -34 c-4 -7 -41 -1 -51 8 -2 2 3 13 10 24 l13 21 17 -22 c9 -12
14 -26 11 -31z m-70 -29 c2 -7 2 -21 -1 -30 -3 -14 -8 -15 -23 -7 -22 11 -25
35 -6 42 20 9 25 8 30 -5z m165 -24 c17 -20 20 -29 12 -45 -9 -15 -21 -19 -65
-19 -33 0 -55 5 -58 13 -3 7 -6 5 -6 -5 -1 -15 8 -18 59 -18 l60 0 0 -75 0
-75 -90 0 -90 0 0 54 c0 70 17 157 34 174 17 17 74 31 101 25 11 -3 30 -16 43
-29z m182 -164 l0 -70 35 0 c31 0 35 -3 35 -25 0 -27 8 -26 -215 -26 -30 0
-62 0 -70 0 -9 1 -15 11 -15 26 0 21 5 25 30 25 l30 0 0 65 c0 36 2 65 4 65 2
0 21 -6 42 -14 35 -12 43 -11 74 5 19 11 38 19 42 19 5 0 8 -31 8 -70z m-240
-95 c0 -22 -4 -25 -35 -25 -31 0 -35 3 -35 25 0 22 4 25 35 25 31 0 35 -3 35
-25z m390 0 c0 -22 -4 -25 -35 -25 -31 0 -35 3 -35 25 0 22 4 25 35 25 31 0
35 -3 35 -25z m-86 -91 c3 -8 2 -12 -4 -9 -6 3 -10 10 -10 16 0 14 7 11 14 -7z"/>
<path d="M135 397 c-4 -10 -5 -21 -1 -24 10 -10 18 4 13 24 -4 17 -4 17 -12 0z"/>
<path d="M185 397 c-4 -10 -5 -21 -1 -24 10 -10 18 4 13 24 -4 17 -4 17 -12 0z"/>
<path d="M78 270 c2 -16 6 -30 8 -30 2 0 4 14 4 30 0 17 -4 30 -8 30 -5 0 -7
-13 -4 -30z"/>
</g>
</svg>
